<?xml version="1.0" standalone="no"?>
<!DOCTYPE svg PUBLIC "-//W3C//DTD SVG 20010904//EN"
 "http://www.w3.org/TR/2001/REC-SVG-20010904/DTD/svg10.dtd">
<svg version="1.0" xmlns="http://www.w3.org/2000/svg"
 width="600.000000pt" height="600.000000pt" viewBox="0 0 600.000000 600.000000"
 preserveAspectRatio="xMidYMid meet">
<metadata>
Created by potrace 1.14, written by Peter Selinger 2001-2017
</metadata>
<g transform="translate(0.000000,600.000000) scale(0.100000,-0.100000)"
fill="#000000" stroke="none">
<path d="M2915 5982 c-48 -24 -79 -52 -102 -95 -15 -27 -18 -64 -20 -252 -3
-243 2 -268 63 -329 83 -83 230 -76 308 15 49 58 56 95 56 302 0 205 -9 254
-58 309 -54 61 -174 85 -247 50z"/>
<path d="M1089 5226 c-121 -31 -184 -150 -148 -280 8 -30 43 -73 152 -184 152
-155 206 -192 283 -192 61 0 138 43 177 98 29 42 32 54 32 117 0 53 -5 78 -20
102 -29 45 -273 291 -315 318 -44 28 -102 35 -161 21z"/>
<path d="M4799 5224 c-37 -11 -70 -39 -193 -159 -160 -159 -186 -197 -186
-280 0 -157 168 -262 306 -190 44 22 304 285 327 330 23 45 26 139 6 177 -55
107 -153 153 -260 122z"/>
<path d="M2927 4804 c-1 -1 -33 -5 -72 -8 -38 -3 -81 -8 -95 -11 -215 -42
-333 -81 -486 -160 -375 -194 -646 -510 -779 -909 -20 -59 -38 -118 -41 -130
-2 -11 -9 -48 -15 -81 -5 -33 -12 -71 -15 -85 -10 -48 -11 -306 -3 -380 12
-95 45 -245 74 -330 77 -227 177 -390 400 -650 182 -212 222 -302 230 -515 4
-100 10 -132 35 -196 53 -134 155 -211 371 -283 378 -126 748 -104 1104 64
156 74 238 196 251 374 11 160 13 172 30 241 19 78 99 211 181 300 10 11 38
45 63 75 25 30 54 65 65 78 137 161 279 440 321 632 4 19 9 40 10 45 9 35 15
67 20 120 4 33 8 63 11 67 2 4 4 72 4 150 0 125 -8 223 -26 308 -3 14 -8 38
-10 53 -12 66 -71 229 -115 322 -242 503 -733 848 -1285 901 -64 6 -224 11
-228 8z"/>
<path d="M318 3365 c-86 -26 -141 -90 -153 -177 -15 -109 48 -205 155 -235 8
-3 110 -5 225 -5 152 -1 218 3 235 12 88 45 131 109 132 194 1 86 -35 149
-109 193 -45 26 -48 27 -248 28 -117 0 -217 -4 -237 -10z"/>
<path d="M5275 3372 c-41 -6 -111 -45 -134 -74 -51 -64 -64 -154 -32 -223 24
-51 52 -80 104 -106 38 -20 58 -22 240 -23 152 -1 211 2 248 14 119 37 180
167 131 281 -20 47 -76 103 -121 121 -24 10 -387 18 -436 10z"/>
<path d="M1330 1741 c-57 -18 -92 -46 -227 -181 -162 -161 -180 -192 -170
-287 11 -106 91 -181 202 -188 87 -6 131 23 286 185 73 77 139 151 147 165 20
39 26 117 12 160 -16 48 -75 114 -118 132 -43 18 -100 24 -132 14z"/>
<path d="M4556 1730 c-60 -24 -89 -50 -115 -106 -25 -53 -27 -127 -5 -180 18
-44 242 -277 314 -327 38 -27 53 -31 110 -31 71 0 112 16 155 62 55 58 73 160
41 236 -16 40 -255 288 -316 331 -49 33 -121 39 -184 15z"/>
<path d="M2283 732 c-42 -6 -54 -44 -55 -172 -1 -279 181 -470 512 -537 85
-17 357 -25 440 -13 144 22 210 40 305 85 129 62 220 164 266 297 17 50 22 86
22 176 0 171 -11 182 -148 141 -111 -33 -207 -59 -240 -65 -101 -17 -146 -23
-195 -29 -62 -6 -327 -8 -338 -1 -4 2 -37 7 -74 10 -74 8 -101 12 -168 27 -25
6 -53 12 -63 14 -10 2 -32 9 -50 14 -97 32 -195 56 -214 53z"/>
</g>
</svg>
